<svg xmlns="http://www.w3.org/2000/svg" viewBox="0 0 244.333 244.333"><title>Asset 3</title><rect width="244.333" height="244.333" fill="none"/><rect x="-6.318" y="81.051" width="153.344" height="25.792" rx="7.841" ry="7.841" transform="translate(-43.616 65.901) rotate(-39.347)" fill="#24242d"/><rect x="93.219" y="81.973" width="153.344" height="25.792" rx="7.841" ry="7.841" transform="translate(101.806 -87.415) rotate(40.339)" fill="#24242d"/><path d="M122.205,83.2,202.08,149.33V219.7s.75,3-.875,4.25a10.16,10.16,0,0,1-4,1.625h-57l-.25-53.375-36,.125v53.25H48.08s-3.375-.25-4.25-1.625-1.75-5.5-1.75-5.5V149.08Z" fill="#24242d"/><rect x="160.642" y="44.333" width="41.611" height="59.708" rx="5.139" ry="5.139" fill="#24242d"/><rect x="175.058" y="90.667" width="27.195" height="19.625" fill="#24242d"/></svg>