<svg xmlns="http://www.w3.org/2000/svg" viewBox="0 0 245.333 245.333"><title>home</title><rect x="0.5" y="0.5" width="244.333" height="244.333" fill="#231f20" stroke="#231f20" stroke-miterlimit="10"/><rect x="-5.818" y="81.551" width="153.344" height="25.792" rx="7.841" ry="7.841" transform="translate(-43.82 66.332) rotate(-39.347)" fill="#fff" stroke="#fff" stroke-miterlimit="10"/><rect x="93.719" y="82.473" width="153.344" height="25.792" rx="7.841" ry="7.841" transform="translate(102.249 -87.62) rotate(40.339)" fill="#fff" stroke="#fff" stroke-miterlimit="10"/><path d="M122.705,83.7,202.58,149.83V220.2s.75,3-.875,4.25a10.16,10.16,0,0,1-4,1.625h-57l-.25-53.375-36,.125v53.25H48.58s-3.375-.25-4.25-1.625-1.75-5.5-1.75-5.5V149.58Z" fill="#fff" stroke="#fff" stroke-miterlimit="10"/><rect x="161.142" y="44.833" width="41.611" height="59.708" rx="5.139" ry="5.139" fill="#fff" stroke="#fff" stroke-miterlimit="10"/><rect x="175.558" y="91.167" width="27.195" height="19.625" fill="#fff" stroke="#fff" stroke-miterlimit="10"/></svg>