<svg xmlns="http://www.w3.org/2000/svg" xmlns:xlink="http://www.w3.org/1999/xlink" viewBox="0 0 192.25 95.493"><defs><radialGradient id="a" cx="96.125" cy="47.747" r="91.902" gradientUnits="userSpaceOnUse"><stop offset="0" stop-color="#eadfff" stop-opacity="0.9"/><stop offset="1" stop-color="#f6f0ff" stop-opacity="0.2"/></radialGradient></defs><title>index_m_2</title><rect width="192.25" height="95.493" rx="35" ry="35" fill="url(#a)"/><path d="M16.144,62.851a5.581,5.581,0,0,1-.191,1.5A3.678,3.678,0,0,1,15.4,65.54,2.514,2.514,0,0,1,13.279,66.6a3.151,3.151,0,0,1-1.22-.219,2.5,2.5,0,0,1-.9-.636v3.562H9.9V59.07h1.155l.062.82a2.5,2.5,0,0,1,.909-.711,2.925,2.925,0,0,1,1.237-.246,2.677,2.677,0,0,1,1.234.273,2.57,2.57,0,0,1,.906.769,3.517,3.517,0,0,1,.557,1.189,5.888,5.888,0,0,1,.188,1.542Zm-1.265-.144a4.494,4.494,0,0,0-.116-1.043,2.634,2.634,0,0,0-.362-.857,1.84,1.84,0,0,0-.622-.585,1.772,1.772,0,0,0-.9-.215,2.1,2.1,0,0,0-.584.075,1.735,1.735,0,0,0-.475.212,1.771,1.771,0,0,0-.376.324,2.429,2.429,0,0,0-.287.407V64.56a2.421,2.421,0,0,0,.287.406,1.679,1.679,0,0,0,.376.321,1.842,1.842,0,0,0,.479.209,2.2,2.2,0,0,0,.595.075,1.721,1.721,0,0,0,.885-.219,1.886,1.886,0,0,0,.619-.588,2.624,2.624,0,0,0,.362-.865,4.569,4.569,0,0,0,.116-1.049Z" transform="translate(-1.677)" fill="#00a651"/><path d="M22.317,66.467a1.381,1.381,0,0,1-.109-.346q-.041-.208-.068-.434a3.362,3.362,0,0,1-.4.352,2.8,2.8,0,0,1-.485.294,2.722,2.722,0,0,1-.571.2,2.849,2.849,0,0,1-.649.072A2.958,2.958,0,0,1,19,66.433a2.411,2.411,0,0,1-.786-.465,2.057,2.057,0,0,1-.5-.694,2.086,2.086,0,0,1-.178-.857,2.28,2.28,0,0,1,.232-1.05,2.091,2.091,0,0,1,.667-.762,3.138,3.138,0,0,1,1.049-.465,5.523,5.523,0,0,1,1.374-.157h1.258V61.4a1.423,1.423,0,0,0-.4-1.057,1.594,1.594,0,0,0-1.169-.393,2.07,2.07,0,0,0-.649.1,1.665,1.665,0,0,0-.5.256,1.2,1.2,0,0,0-.325.373.907.907,0,0,0-.116.444H17.689a1.648,1.648,0,0,1,.208-.786,2.316,2.316,0,0,1,.591-.7,3.138,3.138,0,0,1,.926-.506,3.576,3.576,0,0,1,1.213-.194,3.828,3.828,0,0,1,1.111.153,2.378,2.378,0,0,1,.872.465,2.149,2.149,0,0,1,.567.776,2.671,2.671,0,0,1,.205,1.087v3.438a5.072,5.072,0,0,0,.065.789,2.989,2.989,0,0,0,.195.715v.109Zm-2.1-.964a2.117,2.117,0,0,0,.643-.1,2.425,2.425,0,0,0,.547-.25,2.04,2.04,0,0,0,.427-.352,1.755,1.755,0,0,0,.284-.41V62.878H21.066a3.4,3.4,0,0,0-1.675.338,1.1,1.1,0,0,0-.588,1.022,1.39,1.39,0,0,0,.089.5,1.047,1.047,0,0,0,.27.4,1.321,1.321,0,0,0,.444.267A1.723,1.723,0,0,0,20.218,65.5Z" transform="translate(-1.677)" fill="#00a651"/><path d="M27.081,57.279V59.07h1.381v.978H27.081v4.587a1.289,1.289,0,0,0,.068.461.667.667,0,0,0,.181.271.58.58,0,0,0,.26.126,1.481,1.481,0,0,0,.3.031,1.911,1.911,0,0,0,.332-.031c.116-.021.206-.037.27-.051v1.025c-.1.027-.23.057-.39.089a3.068,3.068,0,0,1-.581.048,2.151,2.151,0,0,1-.66-.1,1.326,1.326,0,0,1-.543-.331,1.641,1.641,0,0,1-.369-.612,2.765,2.765,0,0,1-.137-.933v-4.58H24.47V59.07h1.347V57.279Z" transform="translate(-1.677)" fill="#00a651"/><path d="M31.2,59.966a2.819,2.819,0,0,1,.95-.759,2.752,2.752,0,0,1,1.237-.273,3.067,3.067,0,0,1,.978.146,1.812,1.812,0,0,1,.745.472,2.193,2.193,0,0,1,.475.834,3.977,3.977,0,0,1,.167,1.234v4.847H34.491v-4.86a2.468,2.468,0,0,0-.1-.735,1.21,1.21,0,0,0-.284-.5,1.109,1.109,0,0,0-.465-.28,2.082,2.082,0,0,0-.639-.089,1.826,1.826,0,0,0-1.08.328,2.228,2.228,0,0,0-.725.861v5.271H29.939v-10.5H31.2Z" transform="translate(-1.677)" fill="#00a651"/><path d="M44.2,64.724,45.62,59.07h1.265l-2.153,7.4H43.706l-1.8-5.605-1.75,5.605H39.133l-2.146-7.4h1.258L39.7,64.607l1.723-5.537h1.019Z" transform="translate(-1.677)" fill="#00a651"/><path d="M52.737,66.467a1.381,1.381,0,0,1-.109-.346q-.041-.208-.068-.434a3.362,3.362,0,0,1-.4.352,2.8,2.8,0,0,1-.485.294,2.722,2.722,0,0,1-.571.2,2.849,2.849,0,0,1-.649.072,2.958,2.958,0,0,1-1.029-.171,2.411,2.411,0,0,1-.786-.465,2.057,2.057,0,0,1-.5-.694,2.086,2.086,0,0,1-.178-.857,2.28,2.28,0,0,1,.232-1.05,2.091,2.091,0,0,1,.667-.762,3.138,3.138,0,0,1,1.049-.465,5.523,5.523,0,0,1,1.374-.157h1.258V61.4a1.423,1.423,0,0,0-.4-1.057,1.594,1.594,0,0,0-1.169-.393,2.07,2.07,0,0,0-.649.1,1.665,1.665,0,0,0-.5.256,1.2,1.2,0,0,0-.325.373.907.907,0,0,0-.116.444H48.109a1.648,1.648,0,0,1,.208-.786,2.316,2.316,0,0,1,.591-.7,3.138,3.138,0,0,1,.926-.506,3.576,3.576,0,0,1,1.213-.194,3.828,3.828,0,0,1,1.111.153,2.378,2.378,0,0,1,.872.465,2.149,2.149,0,0,1,.567.776,2.671,2.671,0,0,1,.205,1.087v3.438a5.072,5.072,0,0,0,.065.789,2.989,2.989,0,0,0,.195.715v.109Zm-2.1-.964a2.117,2.117,0,0,0,.643-.1,2.425,2.425,0,0,0,.547-.25,2.04,2.04,0,0,0,.427-.352,1.755,1.755,0,0,0,.284-.41V62.878H51.486a3.4,3.4,0,0,0-1.675.338,1.1,1.1,0,0,0-.588,1.022,1.39,1.39,0,0,0,.089.5,1.047,1.047,0,0,0,.27.4,1.321,1.321,0,0,0,.444.267A1.723,1.723,0,0,0,50.638,65.5Z" transform="translate(-1.677)" fill="#00a651"/><path d="M58.1,64.614l1.723-5.544h1.354l-2.974,8.538a5.925,5.925,0,0,1-.267.595,2.559,2.559,0,0,1-.427.6,2.3,2.3,0,0,1-.632.465,1.882,1.882,0,0,1-.868.188,1.428,1.428,0,0,1-.178-.014c-.068-.01-.137-.02-.205-.031s-.132-.022-.191-.034-.1-.021-.137-.03V68.319a.51.51,0,0,0,.075.01l.1.007.1.007c.03,0,.054,0,.072,0a2.35,2.35,0,0,0,.567-.062,1.236,1.236,0,0,0,.438-.2,1.257,1.257,0,0,0,.332-.372,3.008,3.008,0,0,0,.256-.574l.28-.752L54.876,59.07h1.381Z" transform="translate(-1.677)" fill="#00a651"/><path d="M68.842,66.6a3.531,3.531,0,0,1-1.4-.267,3.114,3.114,0,0,1-1.07-.742,3.273,3.273,0,0,1-.684-1.131,4.158,4.158,0,0,1-.239-1.436v-.287a4.514,4.514,0,0,1,.27-1.613,3.614,3.614,0,0,1,.721-1.2,3.112,3.112,0,0,1,1.032-.742,2.965,2.965,0,0,1,1.21-.256,3.12,3.12,0,0,1,1.367.276,2.589,2.589,0,0,1,.947.763,3.235,3.235,0,0,1,.55,1.148,5.548,5.548,0,0,1,.178,1.442v.567H66.716a3.176,3.176,0,0,0,.167.957,2.34,2.34,0,0,0,.438.772,2.037,2.037,0,0,0,1.589.711,2.209,2.209,0,0,0,1.135-.273,2.854,2.854,0,0,0,.813-.725l.772.6a3.424,3.424,0,0,1-.431.529,2.91,2.91,0,0,1-.591.458,3.077,3.077,0,0,1-.776.321A3.748,3.748,0,0,1,68.842,66.6Zm-.157-6.631a1.7,1.7,0,0,0-1.278.547,2.191,2.191,0,0,0-.42.663,3.349,3.349,0,0,0-.229.909h3.705V62a3.508,3.508,0,0,0-.12-.731,1.974,1.974,0,0,0-.308-.649,1.583,1.583,0,0,0-.537-.465A1.683,1.683,0,0,0,68.685,59.973Z" transform="translate(-1.677)" fill="#00a651"/><path d="M74.386,59.07l.041.93a2.86,2.86,0,0,1,.957-.783,2.753,2.753,0,0,1,1.258-.283,3.067,3.067,0,0,1,.978.146,1.812,1.812,0,0,1,.745.472,2.193,2.193,0,0,1,.475.834,3.977,3.977,0,0,1,.167,1.234v4.847H77.742v-4.86a2.468,2.468,0,0,0-.1-.735,1.21,1.21,0,0,0-.284-.5,1.109,1.109,0,0,0-.465-.28,2.082,2.082,0,0,0-.639-.089,1.826,1.826,0,0,0-1.08.328,2.228,2.228,0,0,0-.725.861v5.271H73.19v-7.4Z" transform="translate(-1.677)" fill="#00a651"/><path d="M84.489,60.205q-.164-.028-.3-.038c-.093-.007-.2-.01-.318-.01a1.837,1.837,0,0,0-1.07.287,1.739,1.739,0,0,0-.619.772v5.25H80.914v-7.4h1.23l.021.854a2.223,2.223,0,0,1,.718-.725,1.949,1.949,0,0,1,1.046-.267,1.864,1.864,0,0,1,.314.03.96.96,0,0,1,.246.065Z" transform="translate(-1.677)" fill="#00a651"/><path d="M85.658,57.108a.753.753,0,0,1,.188-.52.7.7,0,0,1,.557-.212.715.715,0,0,1,.561.212.747.747,0,0,1,.191.52.749.749,0,1,1-1.5,0Zm1.367,9.358H85.761v-7.4h1.265Z" transform="translate(-1.677)" fill="#00a651"/><path d="M92.016,65.571a1.921,1.921,0,0,0,.643-.109,1.845,1.845,0,0,0,.543-.3,1.565,1.565,0,0,0,.383-.455,1.4,1.4,0,0,0,.174-.57h1.2a2.2,2.2,0,0,1-.27.939,2.744,2.744,0,0,1-.639.786,3.13,3.13,0,0,1-.919.54,3.053,3.053,0,0,1-1.111.2,3.32,3.32,0,0,1-1.453-.3,2.948,2.948,0,0,1-1.029-.8,3.407,3.407,0,0,1-.612-1.176,4.9,4.9,0,0,1-.2-1.415v-.287a4.886,4.886,0,0,1,.2-1.415,3.39,3.39,0,0,1,.612-1.176,2.949,2.949,0,0,1,1.025-.8,3.3,3.3,0,0,1,1.449-.3,3.241,3.241,0,0,1,1.179.205,2.829,2.829,0,0,1,.916.563,2.584,2.584,0,0,1,.6.852,2.923,2.923,0,0,1,.246,1.06h-1.2a1.921,1.921,0,0,0-.161-.64,1.7,1.7,0,0,0-.359-.52A1.673,1.673,0,0,0,92.7,60.1a1.778,1.778,0,0,0-.694-.13,1.859,1.859,0,0,0-.974.232,1.831,1.831,0,0,0-.622.611,2.567,2.567,0,0,0-.332.854,4.813,4.813,0,0,0-.1.954v.287a4.867,4.867,0,0,0,.1.967,2.575,2.575,0,0,0,.328.852,1.815,1.815,0,0,0,.622.608A1.9,1.9,0,0,0,92.016,65.571Z" transform="translate(-1.677)" fill="#00a651"/><path d="M97.642,59.966a2.819,2.819,0,0,1,.95-.759,2.752,2.752,0,0,1,1.237-.273,3.067,3.067,0,0,1,.978.146,1.812,1.812,0,0,1,.745.472,2.193,2.193,0,0,1,.475.834,3.977,3.977,0,0,1,.167,1.234v4.847H100.93v-4.86a2.468,2.468,0,0,0-.1-.735,1.21,1.21,0,0,0-.284-.5,1.109,1.109,0,0,0-.465-.28,2.082,2.082,0,0,0-.639-.089,1.826,1.826,0,0,0-1.08.328,2.228,2.228,0,0,0-.725.861v5.271H96.377v-10.5h1.265Z" transform="translate(-1.677)" fill="#00a651"/><path d="M105.278,59.07l.034.82a2.679,2.679,0,0,1,.926-.7,2.974,2.974,0,0,1,1.269-.253,2.733,2.733,0,0,1,1.268.283,1.886,1.886,0,0,1,.845.906,2.806,2.806,0,0,1,.96-.861,2.839,2.839,0,0,1,1.4-.328,3.305,3.305,0,0,1,1.053.153,1.91,1.91,0,0,1,.775.482,2.109,2.109,0,0,1,.482.834,3.916,3.916,0,0,1,.164,1.2v4.86h-1.265V61.6a2.264,2.264,0,0,0-.113-.772,1.2,1.2,0,0,0-.317-.492,1.138,1.138,0,0,0-.5-.257,2.745,2.745,0,0,0-.649-.071,1.811,1.811,0,0,0-.69.123,1.607,1.607,0,0,0-.517.331,1.589,1.589,0,0,0-.342.492,1.994,1.994,0,0,0-.16.605v4.908h-1.271v-4.86a2.124,2.124,0,0,0-.113-.735,1.264,1.264,0,0,0-.317-.5,1.236,1.236,0,0,0-.5-.28,2.214,2.214,0,0,0-.652-.089,1.825,1.825,0,0,0-1.087.294,1.806,1.806,0,0,0-.616.766v5.4h-1.265v-7.4Z" transform="translate(-1.677)" fill="#00a651"/><path d="M119.428,66.6a3.532,3.532,0,0,1-1.4-.267,3.107,3.107,0,0,1-1.069-.742,3.258,3.258,0,0,1-.684-1.131,4.147,4.147,0,0,1-.239-1.436v-.287a4.525,4.525,0,0,1,.27-1.613,3.623,3.623,0,0,1,.722-1.2,3.107,3.107,0,0,1,1.032-.742,2.961,2.961,0,0,1,1.21-.256,3.122,3.122,0,0,1,1.367.276,2.583,2.583,0,0,1,.946.763,3.235,3.235,0,0,1,.551,1.148,5.569,5.569,0,0,1,.178,1.442v.567H117.3a3.161,3.161,0,0,0,.167.957,2.349,2.349,0,0,0,.438.772,2.037,2.037,0,0,0,1.59.711,2.212,2.212,0,0,0,1.135-.273,2.86,2.86,0,0,0,.813-.725l.772.6a3.482,3.482,0,0,1-.431.529,2.927,2.927,0,0,1-.592.458,3.081,3.081,0,0,1-.775.321A3.75,3.75,0,0,1,119.428,66.6Zm-.157-6.631a1.7,1.7,0,0,0-1.278.547,2.192,2.192,0,0,0-.421.663,3.367,3.367,0,0,0-.229.909h3.705V62a3.477,3.477,0,0,0-.12-.731,1.954,1.954,0,0,0-.308-.649,1.577,1.577,0,0,0-.536-.465A1.685,1.685,0,0,0,119.271,59.973Z" transform="translate(-1.677)" fill="#00a651"/><path d="M124.972,59.07l.041.93a2.851,2.851,0,0,1,.957-.783,2.752,2.752,0,0,1,1.258-.283,3.071,3.071,0,0,1,.978.146,1.815,1.815,0,0,1,.745.472,2.186,2.186,0,0,1,.475.834,3.961,3.961,0,0,1,.168,1.234v4.847h-1.265v-4.86a2.484,2.484,0,0,0-.1-.735,1.211,1.211,0,0,0-.284-.5,1.106,1.106,0,0,0-.465-.28,2.081,2.081,0,0,0-.639-.089,1.825,1.825,0,0,0-1.08.328,2.22,2.22,0,0,0-.725.861v5.271h-1.265v-7.4Z" transform="translate(-1.677)" fill="#00a651"/><path d="M133.217,57.279V59.07H134.6v.978h-1.381v4.587a1.278,1.278,0,0,0,.068.461.662.662,0,0,0,.181.271.582.582,0,0,0,.26.126,1.486,1.486,0,0,0,.3.031,1.91,1.91,0,0,0,.331-.031c.116-.021.206-.037.271-.051v1.025c-.1.027-.23.057-.39.089a3.075,3.075,0,0,1-.581.048,2.156,2.156,0,0,1-.66-.1,1.324,1.324,0,0,1-.543-.331,1.629,1.629,0,0,1-.369-.612,2.753,2.753,0,0,1-.137-.933v-4.58h-1.347V59.07h1.347V57.279Z" transform="translate(-1.677)" fill="#00a651"/><path d="M144.106,66.467a1.361,1.361,0,0,1-.109-.346c-.027-.139-.051-.283-.068-.434a3.367,3.367,0,0,1-.4.352,2.766,2.766,0,0,1-.485.294,2.708,2.708,0,0,1-.57.2,2.852,2.852,0,0,1-.649.072,2.959,2.959,0,0,1-1.029-.171,2.416,2.416,0,0,1-.786-.465,2.056,2.056,0,0,1-.5-.694,2.078,2.078,0,0,1-.178-.857,2.274,2.274,0,0,1,.232-1.05,2.09,2.09,0,0,1,.666-.762,3.145,3.145,0,0,1,1.05-.465,5.523,5.523,0,0,1,1.374-.157h1.258V61.4a1.425,1.425,0,0,0-.4-1.057,1.6,1.6,0,0,0-1.169-.393,2.066,2.066,0,0,0-.649.1,1.668,1.668,0,0,0-.5.256,1.2,1.2,0,0,0-.324.373.9.9,0,0,0-.116.444h-1.271a1.653,1.653,0,0,1,.208-.786,2.318,2.318,0,0,1,.592-.7,3.129,3.129,0,0,1,.926-.506,3.577,3.577,0,0,1,1.214-.194,3.824,3.824,0,0,1,1.11.153,2.38,2.38,0,0,1,.872.465,2.154,2.154,0,0,1,.567.776,2.671,2.671,0,0,1,.205,1.087v3.438a5.13,5.13,0,0,0,.064.789,2.988,2.988,0,0,0,.2.715v.109Zm-2.1-.964a2.122,2.122,0,0,0,.643-.1,2.435,2.435,0,0,0,.547-.25,2.024,2.024,0,0,0,.427-.352,1.743,1.743,0,0,0,.284-.41V62.878h-1.053a3.394,3.394,0,0,0-1.675.338,1.1,1.1,0,0,0-.588,1.022,1.38,1.38,0,0,0,.089.5,1.046,1.046,0,0,0,.27.4,1.331,1.331,0,0,0,.444.267A1.728,1.728,0,0,0,142.008,65.5Z" transform="translate(-1.677)" fill="#00a651"/><path d="M148.351,59.07l.041.93a2.851,2.851,0,0,1,.957-.783,2.752,2.752,0,0,1,1.258-.283,3.071,3.071,0,0,1,.978.146,1.815,1.815,0,0,1,.745.472,2.186,2.186,0,0,1,.475.834,3.961,3.961,0,0,1,.168,1.234v4.847h-1.265v-4.86a2.484,2.484,0,0,0-.1-.735,1.211,1.211,0,0,0-.284-.5,1.106,1.106,0,0,0-.465-.28,2.081,2.081,0,0,0-.639-.089,1.825,1.825,0,0,0-1.08.328,2.22,2.22,0,0,0-.725.861v5.271h-1.265v-7.4Z" transform="translate(-1.677)" fill="#00a651"/><path d="M159.446,66.467a1.361,1.361,0,0,1-.109-.346c-.027-.139-.051-.283-.068-.434a3.367,3.367,0,0,1-.4.352,2.766,2.766,0,0,1-.485.294,2.708,2.708,0,0,1-.57.2,2.852,2.852,0,0,1-.649.072,2.959,2.959,0,0,1-1.029-.171,2.416,2.416,0,0,1-.786-.465,2.056,2.056,0,0,1-.5-.694,2.078,2.078,0,0,1-.178-.857,2.274,2.274,0,0,1,.232-1.05,2.09,2.09,0,0,1,.666-.762,3.145,3.145,0,0,1,1.05-.465,5.523,5.523,0,0,1,1.374-.157h1.258V61.4a1.425,1.425,0,0,0-.4-1.057,1.6,1.6,0,0,0-1.169-.393,2.066,2.066,0,0,0-.649.1,1.668,1.668,0,0,0-.5.256,1.2,1.2,0,0,0-.324.373.9.9,0,0,0-.116.444h-1.271a1.653,1.653,0,0,1,.208-.786,2.318,2.318,0,0,1,.592-.7,3.129,3.129,0,0,1,.926-.506,3.577,3.577,0,0,1,1.214-.194,3.824,3.824,0,0,1,1.11.153,2.38,2.38,0,0,1,.872.465,2.154,2.154,0,0,1,.567.776,2.671,2.671,0,0,1,.205,1.087v3.438a5.13,5.13,0,0,0,.064.789,2.988,2.988,0,0,0,.2.715v.109Zm-2.1-.964a2.122,2.122,0,0,0,.643-.1,2.435,2.435,0,0,0,.547-.25,2.024,2.024,0,0,0,.427-.352,1.743,1.743,0,0,0,.284-.41V62.878H158.2a3.394,3.394,0,0,0-1.675.338,1.1,1.1,0,0,0-.588,1.022,1.38,1.38,0,0,0,.089.5,1.046,1.046,0,0,0,.27.4,1.331,1.331,0,0,0,.444.267A1.728,1.728,0,0,0,157.347,65.5Z" transform="translate(-1.677)" fill="#00a651"/><path d="M163.869,66.467H162.6v-10.5h1.265Z" transform="translate(-1.677)" fill="#00a651"/><path d="M168.312,64.614l1.723-5.544h1.354l-2.974,8.538a5.925,5.925,0,0,1-.267.595,2.547,2.547,0,0,1-.428.6,2.289,2.289,0,0,1-.632.465,1.884,1.884,0,0,1-.868.188,1.422,1.422,0,0,1-.178-.014c-.068-.01-.137-.02-.205-.031s-.133-.022-.191-.034-.105-.021-.137-.03V68.319a.492.492,0,0,0,.075.01l.1.007.1.007c.03,0,.054,0,.072,0a2.353,2.353,0,0,0,.567-.062,1.24,1.24,0,0,0,.438-.2,1.256,1.256,0,0,0,.331-.372,3.007,3.007,0,0,0,.257-.574l.28-.752-2.639-7.314h1.381Z" transform="translate(-1.677)" fill="#00a651"/><path d="M176.823,64.5a1.2,1.2,0,0,0-.062-.387.818.818,0,0,0-.243-.342,1.817,1.817,0,0,0-.516-.3,5.257,5.257,0,0,0-.882-.253,8.449,8.449,0,0,1-1.107-.308,3.4,3.4,0,0,1-.838-.428,1.765,1.765,0,0,1-.529-.591,1.662,1.662,0,0,1-.185-.8,1.849,1.849,0,0,1,.194-.831,2.127,2.127,0,0,1,.551-.69,2.681,2.681,0,0,1,.861-.472,3.444,3.444,0,0,1,1.128-.174,3.629,3.629,0,0,1,1.186.181,2.7,2.7,0,0,1,.889.5,2.114,2.114,0,0,1,.558.734,2.155,2.155,0,0,1,.191.9h-1.271a1.11,1.11,0,0,0-.1-.455,1.25,1.25,0,0,0-.3-.41,1.571,1.571,0,0,0-.485-.294,1.808,1.808,0,0,0-.663-.112,2.148,2.148,0,0,0-.674.092,1.322,1.322,0,0,0-.454.246.938.938,0,0,0-.26.349,1.024,1.024,0,0,0-.082.4.946.946,0,0,0,.068.369.693.693,0,0,0,.26.3,2.113,2.113,0,0,0,.522.246,8.477,8.477,0,0,0,.858.229,8.182,8.182,0,0,1,1.176.355,3.23,3.23,0,0,1,.827.461,1.7,1.7,0,0,1,.488.605,1.84,1.84,0,0,1,.161.793A1.934,1.934,0,0,1,177.308,66a2.827,2.827,0,0,1-.9.447,3.989,3.989,0,0,1-1.169.161,3.8,3.8,0,0,1-1.3-.205,2.911,2.911,0,0,1-.946-.544,2.284,2.284,0,0,1-.581-.772,2.115,2.115,0,0,1-.2-.892h1.265a1.326,1.326,0,0,0,.188.652,1.4,1.4,0,0,0,.421.428,1.7,1.7,0,0,0,.554.232,2.739,2.739,0,0,0,.6.068,2.556,2.556,0,0,0,.684-.082,1.578,1.578,0,0,0,.5-.226.971.971,0,0,0,.3-.339A.887.887,0,0,0,176.823,64.5Z" transform="translate(-1.677)" fill="#00a651"/><path d="M179.742,57.108a.755.755,0,0,1,.188-.52.707.707,0,0,1,.558-.212.716.716,0,0,1,.561.212.749.749,0,0,1,.191.52.749.749,0,1,1-1.5,0Zm1.367,9.358h-1.265v-7.4h1.265Z" transform="translate(-1.677)" fill="#00a651"/><path d="M187.439,64.5a1.2,1.2,0,0,0-.062-.387.818.818,0,0,0-.243-.342,1.817,1.817,0,0,0-.516-.3,5.257,5.257,0,0,0-.882-.253,8.449,8.449,0,0,1-1.107-.308,3.4,3.4,0,0,1-.838-.428,1.765,1.765,0,0,1-.529-.591,1.662,1.662,0,0,1-.185-.8,1.849,1.849,0,0,1,.194-.831,2.127,2.127,0,0,1,.551-.69,2.681,2.681,0,0,1,.861-.472,3.444,3.444,0,0,1,1.128-.174,3.629,3.629,0,0,1,1.186.181,2.7,2.7,0,0,1,.889.5,2.114,2.114,0,0,1,.558.734,2.155,2.155,0,0,1,.191.9h-1.271a1.11,1.11,0,0,0-.1-.455,1.25,1.25,0,0,0-.3-.41,1.571,1.571,0,0,0-.485-.294,1.808,1.808,0,0,0-.663-.112,2.148,2.148,0,0,0-.674.092,1.322,1.322,0,0,0-.454.246.938.938,0,0,0-.26.349,1.024,1.024,0,0,0-.082.4.946.946,0,0,0,.068.369.693.693,0,0,0,.26.3,2.113,2.113,0,0,0,.522.246,8.477,8.477,0,0,0,.858.229,8.182,8.182,0,0,1,1.176.355,3.23,3.23,0,0,1,.827.461,1.7,1.7,0,0,1,.488.605,1.84,1.84,0,0,1,.161.793A1.934,1.934,0,0,1,187.925,66a2.827,2.827,0,0,1-.9.447,3.989,3.989,0,0,1-1.169.161,3.8,3.8,0,0,1-1.3-.205,2.911,2.911,0,0,1-.946-.544,2.284,2.284,0,0,1-.581-.772,2.115,2.115,0,0,1-.2-.892h1.265a1.326,1.326,0,0,0,.188.652,1.4,1.4,0,0,0,.421.428,1.7,1.7,0,0,0,.554.232,2.739,2.739,0,0,0,.6.068,2.556,2.556,0,0,0,.684-.082,1.578,1.578,0,0,0,.5-.226.971.971,0,0,0,.3-.339A.887.887,0,0,0,187.439,64.5Z" transform="translate(-1.677)" fill="#00a651"/><circle cx="50.05" cy="38.599" r="6.625" fill="#ed1c24"/><circle cx="78.925" cy="17.099" r="6.625" fill="#fbb040"/><circle cx="145.925" cy="23.724" r="6.625" fill="#1b75bc"/><circle cx="116.8" cy="45.224" r="6.625" fill="#00a651"/><line x1="55.395" y1="34.695" x2="73.721" y2="21.38" fill="none" stroke="#231f20" stroke-miterlimit="10" stroke-width="0.5"/><line x1="70.356" y1="22.617" x2="73.664" y2="21.417" fill="none" stroke="#231f20" stroke-miterlimit="10" stroke-width="0.5"/><line x1="71.537" y1="24.161" x2="73.618" y2="21.434" fill="none" stroke="#231f20" stroke-miterlimit="10" stroke-width="0.5"/><line x1="83.965" y1="21.395" x2="111.014" y2="41.423" fill="none" stroke="#231f20" stroke-miterlimit="10" stroke-width="0.5"/><line x1="108.789" y1="38.584" x2="110.961" y2="41.38" fill="none" stroke="#231f20" stroke-miterlimit="10" stroke-width="0.5"/><line x1="107.681" y1="40.194" x2="110.931" y2="41.341" fill="none" stroke="#231f20" stroke-miterlimit="10" stroke-width="0.5"/><line x1="122.369" y1="41.159" x2="140.533" y2="28.01" fill="none" stroke="#231f20" stroke-miterlimit="10" stroke-width="0.5"/><line x1="137.127" y1="29.284" x2="140.476" y2="28.048" fill="none" stroke="#231f20" stroke-miterlimit="10" stroke-width="0.5"/><line x1="138.333" y1="30.842" x2="140.429" y2="28.065" fill="none" stroke="#231f20" stroke-miterlimit="10" stroke-width="0.5"/></svg>