<svg xmlns="http://www.w3.org/2000/svg" viewBox="0 0 179.703 75.215"><title>logo_s_1</title><path d="M5.264,70.266A1.192,1.192,0,0,0,5.2,69.88a.815.815,0,0,0-.243-.342,1.82,1.82,0,0,0-.516-.3,5.323,5.323,0,0,0-.882-.253,8.3,8.3,0,0,1-1.107-.308,3.384,3.384,0,0,1-.837-.427,1.762,1.762,0,0,1-.53-.591,1.659,1.659,0,0,1-.185-.8,1.847,1.847,0,0,1,.195-.831,2.127,2.127,0,0,1,.55-.69,2.692,2.692,0,0,1,.861-.472,3.448,3.448,0,0,1,1.128-.174,3.617,3.617,0,0,1,1.186.181,2.7,2.7,0,0,1,.889.5,2.119,2.119,0,0,1,.557.735,2.147,2.147,0,0,1,.191.9H5.188a1.106,1.106,0,0,0-.1-.455,1.234,1.234,0,0,0-.3-.41,1.556,1.556,0,0,0-.485-.294,1.806,1.806,0,0,0-.663-.113,2.146,2.146,0,0,0-.673.092,1.329,1.329,0,0,0-.455.246.944.944,0,0,0-.26.349,1.021,1.021,0,0,0-.082.4.955.955,0,0,0,.068.369.7.7,0,0,0,.26.3,2.117,2.117,0,0,0,.523.246,8.351,8.351,0,0,0,.858.229,8.288,8.288,0,0,1,1.176.355,3.222,3.222,0,0,1,.827.461,1.7,1.7,0,0,1,.489.6,1.848,1.848,0,0,1,.161.793,1.931,1.931,0,0,1-.779,1.579,2.828,2.828,0,0,1-.9.448,4,4,0,0,1-1.169.161,3.8,3.8,0,0,1-1.3-.205,2.918,2.918,0,0,1-.947-.543,2.3,2.3,0,0,1-.581-.772,2.125,2.125,0,0,1-.2-.892H1.914A1.325,1.325,0,0,0,2.1,70.6a1.4,1.4,0,0,0,.42.427,1.7,1.7,0,0,0,.554.232,2.716,2.716,0,0,0,.6.068,2.554,2.554,0,0,0,.684-.082,1.581,1.581,0,0,0,.5-.226.973.973,0,0,0,.3-.338A.889.889,0,0,0,5.264,70.266Z" transform="translate(-0.649)" fill="#fbb040"/><path d="M8.183,62.869a.754.754,0,0,1,.188-.52.707.707,0,0,1,.557-.212.717.717,0,0,1,.561.212.747.747,0,0,1,.191.52.749.749,0,1,1-1.5,0ZM9.55,72.228H8.285v-7.4H9.55Z" transform="translate(-0.649)" fill="#fbb040"/><path d="M12.77,64.831l.041.93a2.859,2.859,0,0,1,.957-.783,2.747,2.747,0,0,1,1.258-.284,3.053,3.053,0,0,1,.978.147,1.8,1.8,0,0,1,.745.472,2.185,2.185,0,0,1,.475.834,3.974,3.974,0,0,1,.167,1.234v4.847H16.126v-4.86a2.462,2.462,0,0,0-.1-.735,1.212,1.212,0,0,0-.284-.5,1.119,1.119,0,0,0-.465-.28,2.1,2.1,0,0,0-.639-.089,1.826,1.826,0,0,0-1.08.328,2.228,2.228,0,0,0-.725.861v5.271H11.573v-7.4Z" transform="translate(-0.649)" fill="#fbb040"/><path d="M19,68.468a5.52,5.52,0,0,1,.2-1.542,3.577,3.577,0,0,1,.581-1.189,2.6,2.6,0,0,1,2.136-1.042,2.832,2.832,0,0,1,1.224.246,2.478,2.478,0,0,1,.889.711l.062-.82h1.155v7.239a3.471,3.471,0,0,1-.229,1.3,2.677,2.677,0,0,1-.646.964,2.793,2.793,0,0,1-.991.6,3.758,3.758,0,0,1-1.271.205,3.878,3.878,0,0,1-.66-.065,3.963,3.963,0,0,1-.752-.212,3.38,3.38,0,0,1-.728-.393,2.358,2.358,0,0,1-.595-.608l.656-.759a2.952,2.952,0,0,0,.479.479,2.607,2.607,0,0,0,.5.308,2.228,2.228,0,0,0,.506.167,2.593,2.593,0,0,0,.509.051,2.431,2.431,0,0,0,.807-.126,1.636,1.636,0,0,0,.619-.379,1.685,1.685,0,0,0,.393-.619,2.42,2.42,0,0,0,.137-.851V71.49a2.488,2.488,0,0,1-.878.649,2.924,2.924,0,0,1-1.193.226,2.551,2.551,0,0,1-1.2-.28,2.712,2.712,0,0,1-.916-.783,3.718,3.718,0,0,1-.584-1.189,5.227,5.227,0,0,1-.205-1.5Zm1.271.144a4.626,4.626,0,0,0,.113,1.042,2.633,2.633,0,0,0,.349.851,1.682,1.682,0,0,0,1.487.786,2.079,2.079,0,0,0,.6-.082,1.823,1.823,0,0,0,.485-.226,1.745,1.745,0,0,0,.379-.342,2.418,2.418,0,0,0,.287-.437V66.827a2.536,2.536,0,0,0-.287-.42,1.794,1.794,0,0,0-.379-.338,1.755,1.755,0,0,0-.482-.222,2.105,2.105,0,0,0-.595-.079,1.735,1.735,0,0,0-.889.215,1.8,1.8,0,0,0-.608.584,2.663,2.663,0,0,0-.352.858,4.626,4.626,0,0,0-.113,1.042Z" transform="translate(-0.649)" fill="#fbb040"/><path d="M28.526,72.228H27.262v-10.5h1.265Z" transform="translate(-0.649)" fill="#fbb040"/><path d="M33.619,72.365a3.531,3.531,0,0,1-1.4-.267,3.119,3.119,0,0,1-1.07-.742,3.279,3.279,0,0,1-.684-1.131,4.158,4.158,0,0,1-.239-1.436V68.5a4.516,4.516,0,0,1,.27-1.613,3.624,3.624,0,0,1,.721-1.2,3.118,3.118,0,0,1,1.032-.742,2.965,2.965,0,0,1,1.21-.256,3.12,3.12,0,0,1,1.367.277,2.593,2.593,0,0,1,.947.762,3.243,3.243,0,0,1,.55,1.148,5.55,5.55,0,0,1,.178,1.442v.567H31.493a3.173,3.173,0,0,0,.167.957,2.336,2.336,0,0,0,.438.772,2.037,2.037,0,0,0,1.589.711,2.2,2.2,0,0,0,1.135-.273,2.847,2.847,0,0,0,.813-.725l.772.6a3.4,3.4,0,0,1-.431.53,2.927,2.927,0,0,1-.591.458,3.114,3.114,0,0,1-.776.321A3.769,3.769,0,0,1,33.619,72.365Zm-.157-6.631a1.706,1.706,0,0,0-1.278.547,2.2,2.2,0,0,0-.42.663,3.354,3.354,0,0,0-.229.909h3.705v-.1a3.513,3.513,0,0,0-.12-.731,1.978,1.978,0,0,0-.308-.649,1.589,1.589,0,0,0-.537-.465A1.689,1.689,0,0,0,33.462,65.734Z" transform="translate(-0.649)" fill="#fbb040"/><path d="M41.132,68.468a5.52,5.52,0,0,1,.2-1.542,3.577,3.577,0,0,1,.581-1.189,2.6,2.6,0,0,1,2.136-1.042,2.832,2.832,0,0,1,1.224.246,2.478,2.478,0,0,1,.889.711l.062-.82H47.38v7.239a3.471,3.471,0,0,1-.229,1.3,2.677,2.677,0,0,1-.646.964,2.793,2.793,0,0,1-.991.6,3.758,3.758,0,0,1-1.271.205,3.878,3.878,0,0,1-.66-.065,3.963,3.963,0,0,1-.752-.212,3.38,3.38,0,0,1-.728-.393,2.358,2.358,0,0,1-.595-.608l.656-.759a2.952,2.952,0,0,0,.479.479,2.607,2.607,0,0,0,.5.308,2.228,2.228,0,0,0,.506.167,2.593,2.593,0,0,0,.509.051,2.431,2.431,0,0,0,.807-.126,1.636,1.636,0,0,0,.619-.379,1.685,1.685,0,0,0,.393-.619,2.42,2.42,0,0,0,.137-.851V71.49a2.488,2.488,0,0,1-.878.649,2.924,2.924,0,0,1-1.193.226,2.551,2.551,0,0,1-1.2-.28,2.712,2.712,0,0,1-.916-.783,3.718,3.718,0,0,1-.584-1.189,5.227,5.227,0,0,1-.205-1.5Zm1.271.144a4.626,4.626,0,0,0,.113,1.042,2.633,2.633,0,0,0,.349.851,1.682,1.682,0,0,0,1.487.786,2.079,2.079,0,0,0,.6-.082,1.823,1.823,0,0,0,.485-.226,1.745,1.745,0,0,0,.379-.342,2.418,2.418,0,0,0,.287-.437V66.827a2.536,2.536,0,0,0-.287-.42,1.794,1.794,0,0,0-.379-.338,1.755,1.755,0,0,0-.482-.222,2.105,2.105,0,0,0-.595-.079,1.735,1.735,0,0,0-.889.215,1.8,1.8,0,0,0-.608.584,2.663,2.663,0,0,0-.352.858,4.626,4.626,0,0,0-.113,1.042Z" transform="translate(-0.649)" fill="#fbb040"/><path d="M52.356,72.365a3.531,3.531,0,0,1-1.4-.267,3.119,3.119,0,0,1-1.07-.742,3.279,3.279,0,0,1-.684-1.131,4.158,4.158,0,0,1-.239-1.436V68.5a4.516,4.516,0,0,1,.27-1.613,3.624,3.624,0,0,1,.721-1.2,3.118,3.118,0,0,1,1.032-.742,2.965,2.965,0,0,1,1.21-.256,3.12,3.12,0,0,1,1.367.277,2.593,2.593,0,0,1,.947.762,3.243,3.243,0,0,1,.55,1.148,5.55,5.55,0,0,1,.178,1.442v.567H50.23a3.173,3.173,0,0,0,.167.957,2.336,2.336,0,0,0,.438.772,2.037,2.037,0,0,0,1.589.711,2.2,2.2,0,0,0,1.135-.273,2.847,2.847,0,0,0,.813-.725l.772.6a3.4,3.4,0,0,1-.431.53,2.927,2.927,0,0,1-.591.458,3.114,3.114,0,0,1-.776.321A3.769,3.769,0,0,1,52.356,72.365ZM52.2,65.734a1.706,1.706,0,0,0-1.278.547,2.2,2.2,0,0,0-.42.663,3.354,3.354,0,0,0-.229.909h3.705v-.1a3.513,3.513,0,0,0-.12-.731,1.978,1.978,0,0,0-.308-.649,1.589,1.589,0,0,0-.537-.465A1.689,1.689,0,0,0,52.2,65.734Z" transform="translate(-0.649)" fill="#fbb040"/><path d="M57.9,64.831l.041.93a2.859,2.859,0,0,1,.957-.783,2.747,2.747,0,0,1,1.258-.284,3.053,3.053,0,0,1,.978.147,1.8,1.8,0,0,1,.745.472,2.185,2.185,0,0,1,.475.834,3.974,3.974,0,0,1,.167,1.234v4.847H61.257v-4.86a2.462,2.462,0,0,0-.1-.735,1.212,1.212,0,0,0-.284-.5,1.119,1.119,0,0,0-.465-.28,2.1,2.1,0,0,0-.639-.089,1.826,1.826,0,0,0-1.08.328,2.228,2.228,0,0,0-.725.861v5.271H56.7v-7.4Z" transform="translate(-0.649)" fill="#fbb040"/><path d="M67.5,72.365a3.531,3.531,0,0,1-1.4-.267,3.119,3.119,0,0,1-1.07-.742,3.279,3.279,0,0,1-.684-1.131,4.158,4.158,0,0,1-.239-1.436V68.5a4.516,4.516,0,0,1,.27-1.613,3.624,3.624,0,0,1,.721-1.2,3.118,3.118,0,0,1,1.032-.742,2.965,2.965,0,0,1,1.21-.256,3.12,3.12,0,0,1,1.367.277,2.593,2.593,0,0,1,.947.762,3.243,3.243,0,0,1,.55,1.148,5.55,5.55,0,0,1,.178,1.442v.567H65.372a3.173,3.173,0,0,0,.167.957,2.336,2.336,0,0,0,.438.772,2.037,2.037,0,0,0,1.589.711,2.2,2.2,0,0,0,1.135-.273,2.847,2.847,0,0,0,.813-.725l.772.6a3.4,3.4,0,0,1-.431.53,2.927,2.927,0,0,1-.591.458,3.114,3.114,0,0,1-.776.321A3.769,3.769,0,0,1,67.5,72.365Zm-.157-6.631a1.706,1.706,0,0,0-1.278.547,2.2,2.2,0,0,0-.42.663,3.354,3.354,0,0,0-.229.909h3.705v-.1a3.513,3.513,0,0,0-.12-.731,1.978,1.978,0,0,0-.308-.649,1.589,1.589,0,0,0-.537-.465A1.689,1.689,0,0,0,67.341,65.734Z" transform="translate(-0.649)" fill="#fbb040"/><path d="M81.56,68.612a5.582,5.582,0,0,1-.191,1.5,3.678,3.678,0,0,1-.557,1.189A2.515,2.515,0,0,1,78.7,72.365a3.142,3.142,0,0,1-1.22-.219,2.49,2.49,0,0,1-.9-.636v3.562H75.312V64.831h1.155l.062.82a2.5,2.5,0,0,1,.909-.711,2.925,2.925,0,0,1,1.237-.246,2.683,2.683,0,0,1,1.234.273,2.571,2.571,0,0,1,.906.769,3.508,3.508,0,0,1,.557,1.189,5.884,5.884,0,0,1,.188,1.542Zm-1.265-.144a4.487,4.487,0,0,0-.116-1.042,2.632,2.632,0,0,0-.362-.858,1.839,1.839,0,0,0-.622-.584,1.772,1.772,0,0,0-.9-.215,2.117,2.117,0,0,0-.584.075,1.743,1.743,0,0,0-.851.537,2.425,2.425,0,0,0-.287.407v3.534a2.425,2.425,0,0,0,.287.407,1.691,1.691,0,0,0,.376.321,1.825,1.825,0,0,0,.479.208,2.183,2.183,0,0,0,.595.075,1.716,1.716,0,0,0,.885-.219,1.881,1.881,0,0,0,.619-.588,2.626,2.626,0,0,0,.362-.865,4.577,4.577,0,0,0,.116-1.049Z" transform="translate(-0.649)" fill="#fbb040"/><path d="M87.732,72.228a1.376,1.376,0,0,1-.109-.345q-.041-.209-.068-.434a3.409,3.409,0,0,1-.4.352,2.864,2.864,0,0,1-.485.294,2.75,2.75,0,0,1-.571.2,2.849,2.849,0,0,1-.649.072,2.947,2.947,0,0,1-1.029-.171,2.394,2.394,0,0,1-.786-.465,2.051,2.051,0,0,1-.5-.694,2.086,2.086,0,0,1-.178-.858,2.276,2.276,0,0,1,.232-1.049,2.089,2.089,0,0,1,.667-.762A3.148,3.148,0,0,1,84.9,67.9a5.546,5.546,0,0,1,1.374-.157h1.258v-.581a1.421,1.421,0,0,0-.4-1.056,1.592,1.592,0,0,0-1.169-.393,2.084,2.084,0,0,0-.649.1,1.666,1.666,0,0,0-.5.256,1.2,1.2,0,0,0-.325.373.91.91,0,0,0-.116.444H83.1a1.65,1.65,0,0,1,.208-.786,2.308,2.308,0,0,1,.591-.7,3.127,3.127,0,0,1,.926-.506,3.576,3.576,0,0,1,1.213-.195,3.828,3.828,0,0,1,1.111.154,2.371,2.371,0,0,1,.872.465,2.147,2.147,0,0,1,.567.776,2.675,2.675,0,0,1,.205,1.087v3.438a5.078,5.078,0,0,0,.065.79,2.984,2.984,0,0,0,.195.714v.109Zm-2.1-.964a2.1,2.1,0,0,0,.643-.1,2.4,2.4,0,0,0,.547-.25,2.027,2.027,0,0,0,.427-.352,1.735,1.735,0,0,0,.284-.41V68.639H86.481a3.4,3.4,0,0,0-1.675.338A1.1,1.1,0,0,0,84.219,70a1.388,1.388,0,0,0,.089.5,1.048,1.048,0,0,0,.27.4,1.337,1.337,0,0,0,.444.267A1.734,1.734,0,0,0,85.634,71.264Z" transform="translate(-0.649)" fill="#fbb040"/><path d="M92.5,63.04v1.791h1.381v.978H92.5V70.4a1.292,1.292,0,0,0,.068.461.662.662,0,0,0,.181.27.576.576,0,0,0,.26.126,1.481,1.481,0,0,0,.3.031,1.909,1.909,0,0,0,.332-.031q.174-.031.27-.051v1.025q-.15.041-.39.089a3.028,3.028,0,0,1-.581.048,2.166,2.166,0,0,1-.66-.1,1.327,1.327,0,0,1-.543-.332,1.635,1.635,0,0,1-.369-.612,2.768,2.768,0,0,1-.137-.933v-4.58H89.886v-.978h1.347V63.04Z" transform="translate(-0.649)" fill="#fbb040"/><path d="M96.619,65.727a2.831,2.831,0,0,1,.95-.759,2.759,2.759,0,0,1,1.237-.273,3.053,3.053,0,0,1,.978.147,1.8,1.8,0,0,1,.745.472,2.185,2.185,0,0,1,.475.834,3.974,3.974,0,0,1,.167,1.234v4.847H99.907v-4.86a2.462,2.462,0,0,0-.1-.735,1.212,1.212,0,0,0-.284-.5,1.119,1.119,0,0,0-.465-.28,2.1,2.1,0,0,0-.639-.089,1.826,1.826,0,0,0-1.08.328,2.228,2.228,0,0,0-.725.861v5.271H95.354v-10.5h1.265Z" transform="translate(-0.649)" fill="#fbb040"/><path d="M109.614,70.485l1.422-5.653H112.3l-2.153,7.4h-1.025l-1.8-5.605-1.75,5.605h-1.025l-2.146-7.4h1.258l1.456,5.537,1.723-5.537h1.019Z" transform="translate(-0.649)" fill="#fbb040"/><path d="M118.152,72.228a1.376,1.376,0,0,1-.109-.345q-.041-.209-.068-.434a3.409,3.409,0,0,1-.4.352,2.864,2.864,0,0,1-.485.294,2.75,2.75,0,0,1-.571.2,2.849,2.849,0,0,1-.649.072,2.947,2.947,0,0,1-1.029-.171,2.394,2.394,0,0,1-.786-.465,2.051,2.051,0,0,1-.5-.694,2.086,2.086,0,0,1-.178-.858,2.276,2.276,0,0,1,.232-1.049,2.089,2.089,0,0,1,.667-.762,3.148,3.148,0,0,1,1.049-.465,5.546,5.546,0,0,1,1.374-.157h1.258v-.581a1.421,1.421,0,0,0-.4-1.056,1.592,1.592,0,0,0-1.169-.393,2.084,2.084,0,0,0-.649.1,1.666,1.666,0,0,0-.5.256,1.2,1.2,0,0,0-.325.373.91.91,0,0,0-.116.444h-1.271a1.65,1.65,0,0,1,.208-.786,2.308,2.308,0,0,1,.591-.7,3.127,3.127,0,0,1,.926-.506,3.576,3.576,0,0,1,1.213-.195,3.828,3.828,0,0,1,1.111.154,2.371,2.371,0,0,1,.872.465,2.147,2.147,0,0,1,.567.776,2.675,2.675,0,0,1,.205,1.087v3.438a5.078,5.078,0,0,0,.065.79,2.984,2.984,0,0,0,.195.714v.109Zm-2.1-.964a2.1,2.1,0,0,0,.643-.1,2.4,2.4,0,0,0,.547-.25,2.027,2.027,0,0,0,.427-.352,1.735,1.735,0,0,0,.284-.41V68.639H116.9a3.4,3.4,0,0,0-1.675.338A1.1,1.1,0,0,0,114.639,70a1.388,1.388,0,0,0,.089.5,1.048,1.048,0,0,0,.27.4,1.337,1.337,0,0,0,.444.267A1.734,1.734,0,0,0,116.054,71.264Z" transform="translate(-0.649)" fill="#fbb040"/><path d="M123.519,70.375l1.723-5.544h1.354l-2.974,8.538a5.828,5.828,0,0,1-.267.595,2.551,2.551,0,0,1-.427.6,2.309,2.309,0,0,1-.632.465,1.888,1.888,0,0,1-.868.188,1.34,1.34,0,0,1-.178-.014l-.205-.031-.191-.034c-.059-.011-.1-.021-.137-.031V74.08a.5.5,0,0,0,.075.01l.1.007.1.007c.03,0,.054,0,.072,0a2.35,2.35,0,0,0,.567-.062,1.244,1.244,0,0,0,.438-.2,1.259,1.259,0,0,0,.332-.373,2.98,2.98,0,0,0,.256-.574l.28-.752-2.639-7.314h1.381Z" transform="translate(-0.649)" fill="#fbb040"/><path d="M135.755,72.228a1.376,1.376,0,0,1-.109-.345q-.041-.209-.068-.434a3.409,3.409,0,0,1-.4.352,2.864,2.864,0,0,1-.485.294,2.75,2.75,0,0,1-.571.2,2.849,2.849,0,0,1-.649.072,2.947,2.947,0,0,1-1.029-.171,2.394,2.394,0,0,1-.786-.465,2.051,2.051,0,0,1-.5-.694,2.086,2.086,0,0,1-.178-.858,2.276,2.276,0,0,1,.232-1.049,2.089,2.089,0,0,1,.667-.762,3.148,3.148,0,0,1,1.049-.465,5.546,5.546,0,0,1,1.374-.157h1.258v-.581a1.421,1.421,0,0,0-.4-1.056,1.592,1.592,0,0,0-1.169-.393,2.084,2.084,0,0,0-.649.1,1.666,1.666,0,0,0-.5.256,1.2,1.2,0,0,0-.325.373.91.91,0,0,0-.116.444h-1.271a1.65,1.65,0,0,1,.208-.786,2.308,2.308,0,0,1,.591-.7,3.127,3.127,0,0,1,.926-.506,3.576,3.576,0,0,1,1.213-.195,3.828,3.828,0,0,1,1.111.154,2.371,2.371,0,0,1,.872.465,2.147,2.147,0,0,1,.567.776,2.675,2.675,0,0,1,.205,1.087v3.438a5.078,5.078,0,0,0,.065.79,2.984,2.984,0,0,0,.195.714v.109Zm-2.1-.964a2.1,2.1,0,0,0,.643-.1,2.4,2.4,0,0,0,.547-.25,2.027,2.027,0,0,0,.427-.352,1.735,1.735,0,0,0,.284-.41V68.639H134.5a3.4,3.4,0,0,0-1.675.338A1.1,1.1,0,0,0,132.241,70a1.388,1.388,0,0,0,.089.5,1.048,1.048,0,0,0,.27.4,1.337,1.337,0,0,0,.444.267A1.734,1.734,0,0,0,133.656,71.264Z" transform="translate(-0.649)" fill="#fbb040"/><path d="M140,64.831l.041.93a2.859,2.859,0,0,1,.957-.783,2.747,2.747,0,0,1,1.258-.284,3.053,3.053,0,0,1,.978.147,1.8,1.8,0,0,1,.745.472,2.185,2.185,0,0,1,.475.834,3.974,3.974,0,0,1,.167,1.234v4.847h-1.265v-4.86a2.462,2.462,0,0,0-.1-.735,1.212,1.212,0,0,0-.284-.5,1.119,1.119,0,0,0-.465-.28,2.1,2.1,0,0,0-.639-.089,1.826,1.826,0,0,0-1.08.328,2.228,2.228,0,0,0-.725.861v5.271H138.8v-7.4Z" transform="translate(-0.649)" fill="#fbb040"/><path d="M151.095,72.228a1.376,1.376,0,0,1-.109-.345q-.041-.209-.068-.434a3.409,3.409,0,0,1-.4.352,2.864,2.864,0,0,1-.485.294,2.75,2.75,0,0,1-.571.2,2.849,2.849,0,0,1-.649.072,2.947,2.947,0,0,1-1.029-.171,2.394,2.394,0,0,1-.786-.465,2.051,2.051,0,0,1-.5-.694,2.086,2.086,0,0,1-.178-.858,2.276,2.276,0,0,1,.232-1.049,2.089,2.089,0,0,1,.667-.762,3.148,3.148,0,0,1,1.049-.465,5.546,5.546,0,0,1,1.374-.157H150.9v-.581a1.421,1.421,0,0,0-.4-1.056,1.592,1.592,0,0,0-1.169-.393,2.084,2.084,0,0,0-.649.1,1.666,1.666,0,0,0-.5.256,1.2,1.2,0,0,0-.325.373.91.91,0,0,0-.116.444h-1.271a1.65,1.65,0,0,1,.208-.786,2.308,2.308,0,0,1,.591-.7,3.127,3.127,0,0,1,.926-.506,3.576,3.576,0,0,1,1.213-.195,3.828,3.828,0,0,1,1.111.154,2.371,2.371,0,0,1,.872.465,2.147,2.147,0,0,1,.567.776,2.675,2.675,0,0,1,.205,1.087v3.438a5.078,5.078,0,0,0,.065.79,2.984,2.984,0,0,0,.195.714v.109Zm-2.1-.964a2.1,2.1,0,0,0,.643-.1,2.4,2.4,0,0,0,.547-.25,2.027,2.027,0,0,0,.427-.352,1.735,1.735,0,0,0,.284-.41V68.639h-1.053a3.4,3.4,0,0,0-1.675.338A1.1,1.1,0,0,0,147.581,70a1.388,1.388,0,0,0,.089.5,1.048,1.048,0,0,0,.27.4,1.337,1.337,0,0,0,.444.267A1.734,1.734,0,0,0,149,71.264Z" transform="translate(-0.649)" fill="#fbb040"/><path d="M155.518,72.228h-1.265v-10.5h1.265Z" transform="translate(-0.649)" fill="#fbb040"/><path d="M159.961,70.375l1.723-5.544h1.354l-2.974,8.538a5.828,5.828,0,0,1-.267.595,2.551,2.551,0,0,1-.427.6,2.309,2.309,0,0,1-.632.465,1.888,1.888,0,0,1-.868.188,1.34,1.34,0,0,1-.178-.014l-.205-.031-.191-.034c-.059-.011-.1-.021-.137-.031V74.08a.5.5,0,0,0,.075.01l.1.007.1.007c.03,0,.054,0,.072,0a2.35,2.35,0,0,0,.567-.062,1.244,1.244,0,0,0,.438-.2,1.259,1.259,0,0,0,.332-.373,2.98,2.98,0,0,0,.256-.574l.28-.752-2.639-7.314h1.381Z" transform="translate(-0.649)" fill="#fbb040"/><path d="M168.472,70.266a1.192,1.192,0,0,0-.062-.386.815.815,0,0,0-.243-.342,1.82,1.82,0,0,0-.516-.3,5.323,5.323,0,0,0-.882-.253,8.3,8.3,0,0,1-1.107-.308,3.384,3.384,0,0,1-.837-.427,1.762,1.762,0,0,1-.53-.591,1.659,1.659,0,0,1-.185-.8,1.847,1.847,0,0,1,.195-.831,2.127,2.127,0,0,1,.55-.69,2.692,2.692,0,0,1,.861-.472,3.448,3.448,0,0,1,1.128-.174,3.617,3.617,0,0,1,1.186.181,2.7,2.7,0,0,1,.889.5,2.119,2.119,0,0,1,.557.735,2.147,2.147,0,0,1,.191.9H168.4a1.106,1.106,0,0,0-.1-.455,1.234,1.234,0,0,0-.3-.41,1.556,1.556,0,0,0-.485-.294,1.806,1.806,0,0,0-.663-.113,2.146,2.146,0,0,0-.673.092,1.329,1.329,0,0,0-.455.246.944.944,0,0,0-.26.349,1.021,1.021,0,0,0-.082.4.955.955,0,0,0,.068.369.7.7,0,0,0,.26.3,2.117,2.117,0,0,0,.523.246,8.351,8.351,0,0,0,.858.229,8.288,8.288,0,0,1,1.176.355,3.222,3.222,0,0,1,.827.461,1.7,1.7,0,0,1,.489.6,1.848,1.848,0,0,1,.161.793,1.931,1.931,0,0,1-.779,1.579,2.828,2.828,0,0,1-.9.448,4,4,0,0,1-1.169.161,3.8,3.8,0,0,1-1.3-.205,2.918,2.918,0,0,1-.947-.543,2.3,2.3,0,0,1-.581-.772,2.125,2.125,0,0,1-.2-.892h1.265a1.325,1.325,0,0,0,.188.653,1.4,1.4,0,0,0,.42.427,1.7,1.7,0,0,0,.554.232,2.716,2.716,0,0,0,.6.068,2.554,2.554,0,0,0,.684-.082,1.581,1.581,0,0,0,.5-.226.973.973,0,0,0,.3-.338A.889.889,0,0,0,168.472,70.266Z" transform="translate(-0.649)" fill="#fbb040"/><path d="M171.391,62.869a.754.754,0,0,1,.188-.52.707.707,0,0,1,.557-.212.717.717,0,0,1,.561.212.747.747,0,0,1,.191.52.749.749,0,1,1-1.5,0Zm1.367,9.358h-1.265v-7.4h1.265Z" transform="translate(-0.649)" fill="#fbb040"/><path d="M179.088,70.266a1.192,1.192,0,0,0-.062-.386.815.815,0,0,0-.243-.342,1.82,1.82,0,0,0-.516-.3,5.323,5.323,0,0,0-.882-.253,8.3,8.3,0,0,1-1.107-.308,3.384,3.384,0,0,1-.837-.427,1.762,1.762,0,0,1-.53-.591,1.659,1.659,0,0,1-.185-.8,1.847,1.847,0,0,1,.195-.831,2.127,2.127,0,0,1,.55-.69,2.692,2.692,0,0,1,.861-.472,3.448,3.448,0,0,1,1.128-.174,3.617,3.617,0,0,1,1.186.181,2.7,2.7,0,0,1,.889.5,2.119,2.119,0,0,1,.557.735,2.147,2.147,0,0,1,.191.9h-1.271a1.106,1.106,0,0,0-.1-.455,1.234,1.234,0,0,0-.3-.41,1.556,1.556,0,0,0-.485-.294,1.806,1.806,0,0,0-.663-.113,2.146,2.146,0,0,0-.673.092,1.329,1.329,0,0,0-.455.246.944.944,0,0,0-.26.349,1.021,1.021,0,0,0-.082.4.955.955,0,0,0,.068.369.7.7,0,0,0,.26.3,2.117,2.117,0,0,0,.523.246,8.351,8.351,0,0,0,.858.229,8.288,8.288,0,0,1,1.176.355,3.222,3.222,0,0,1,.827.461,1.7,1.7,0,0,1,.489.6,1.848,1.848,0,0,1,.161.793,1.931,1.931,0,0,1-.779,1.579,2.828,2.828,0,0,1-.9.448,4,4,0,0,1-1.169.161,3.8,3.8,0,0,1-1.3-.205,2.918,2.918,0,0,1-.947-.543,2.3,2.3,0,0,1-.581-.772,2.125,2.125,0,0,1-.2-.892h1.265a1.325,1.325,0,0,0,.188.653,1.4,1.4,0,0,0,.42.427,1.7,1.7,0,0,0,.554.232,2.716,2.716,0,0,0,.6.068,2.554,2.554,0,0,0,.684-.082,1.581,1.581,0,0,0,.5-.226.973.973,0,0,0,.3-.338A.889.889,0,0,0,179.088,70.266Z" transform="translate(-0.649)" fill="#fbb040"/><circle cx="59.843" cy="52.403" r="6.625" fill="#ed1c24"/><circle cx="103.925" cy="39.125" r="6.625" fill="#fbb040"/><circle cx="122.153" cy="6.625" r="6.625" fill="#1b75bc"/><circle cx="47.428" cy="8.211" r="6.625" fill="#00a651"/><line x1="49.192" y1="14.489" x2="57.799" y2="45.129" fill="none" stroke="#231f20" stroke-miterlimit="10" stroke-width="0.5"/><line x1="57.808" y1="41.544" x2="57.784" y2="45.063" fill="none" stroke="#231f20" stroke-miterlimit="10" stroke-width="0.5"/><line x1="55.949" y1="42.115" x2="57.784" y2="45.014" fill="none" stroke="#231f20" stroke-miterlimit="10" stroke-width="0.5"/><line x1="53.495" y1="11.531" x2="97.717" y2="35.728" fill="none" stroke="#231f20" stroke-miterlimit="10" stroke-width="0.5"/><line x1="95.126" y1="33.218" x2="97.659" y2="35.693" fill="none" stroke="#231f20" stroke-miterlimit="10" stroke-width="0.5"/><line x1="94.247" y1="34.964" x2="97.623" y2="35.658" fill="none" stroke="#231f20" stroke-miterlimit="10" stroke-width="0.5"/><line x1="53.878" y1="7.716" x2="115.149" y2="6.425" fill="none" stroke="#231f20" stroke-miterlimit="10" stroke-width="0.5"/><line x1="111.624" y1="5.534" x2="115.08" y2="6.424" fill="none" stroke="#231f20" stroke-miterlimit="10" stroke-width="0.5"/><line x1="111.728" y1="7.501" x2="115.032" y2="6.411" fill="none" stroke="#231f20" stroke-miterlimit="10" stroke-width="0.5"/></svg>