<svg xmlns="http://www.w3.org/2000/svg" viewBox="0 0 89.951 17.808"><title>Asset 4</title><path d="M4.344,3.251v2.52H1.8V3.251Zm0,4.7V20.748H1.8V7.956Z" transform="translate(-1.8 -3.251)" fill="#1b75bc"/><path d="M16.248,3.251a18.738,18.738,0,0,1,3.132.2,5.261,5.261,0,0,1,1.98.756,4.654,4.654,0,0,1,1.62,1.7,4.725,4.725,0,0,1,.564,2.3,5.1,5.1,0,0,1-.924,3.06,4.786,4.786,0,0,1-2.58,1.788,7.453,7.453,0,0,1-1.428.252q-.877.085-1.98.084h-5.3v7.344H8.52V3.251ZM15.72,11.2a12.7,12.7,0,0,0,3.42-.42q1.5-.42,1.5-2.46a2.222,2.222,0,0,0-1.332-2.34,8.51,8.51,0,0,0-3.084-.516h-4.9V11.2Z" transform="translate(-1.8 -3.251)" fill="#ed1c24"/><path d="M28.872,7.956v2.112a5.539,5.539,0,0,1,1.6-1.848,3.423,3.423,0,0,1,1.98-.6c.176,0,.352.008.528.024s.36.04.552.072v2.352l-.312-.036c-.08-.008-.16-.012-.24-.012h-.24q-2.424,0-3.132,1.308a6.383,6.383,0,0,0-.708,3.084v6.336H26.328V7.956Z" transform="translate(-1.8 -3.251)" fill="#f7941d"/><path d="M36.492,9.408A6.633,6.633,0,0,1,41.4,7.62a6.593,6.593,0,0,1,4.9,1.788,6.725,6.725,0,0,1,1.776,4.956,6.651,6.651,0,0,1-1.776,4.92,6.618,6.618,0,0,1-4.9,1.776,6.658,6.658,0,0,1-4.908-1.776,6.624,6.624,0,0,1-1.788-4.92A6.7,6.7,0,0,1,36.492,9.408Zm1.968,8.436a3.62,3.62,0,0,0,2.94,1.248,3.571,3.571,0,0,0,2.928-1.26,5.483,5.483,0,0,0,1.032-3.564,5.1,5.1,0,0,0-1.056-3.42,4.057,4.057,0,0,0-5.844.012,5.309,5.309,0,0,0-1.044,3.5A5.267,5.267,0,0,0,38.46,17.844Z" transform="translate(-1.8 -3.251)" fill="#00a651"/><path d="M51.384,7.956V4.812H53.9V7.956h2.448V9.8H53.9V17.58a1.759,1.759,0,0,0,.324,1.248,1.906,1.906,0,0,0,1.284.312H55.9a4.559,4.559,0,0,0,.456-.024v1.872a1.879,1.879,0,0,0-.372-.012c-.12.008-.244.02-.372.036q-.288.023-.564.036t-.54.012a3.178,3.178,0,0,1-2.472-.756,4.634,4.634,0,0,1-.648-2.892V9.8H49.439V7.956Z" transform="translate(-1.8 -3.251)" fill="#1b75bc"/><path d="M60.383,15.06a4.438,4.438,0,0,0,1.164,3,4.071,4.071,0,0,0,2.988,1.032,4.228,4.228,0,0,0,2.424-.636,3.09,3.09,0,0,0,1.248-1.908h2.664a5.557,5.557,0,0,1-2.232,3.312,7.11,7.11,0,0,1-4.2,1.2,6.671,6.671,0,0,1-4.92-1.788,6.605,6.605,0,0,1-1.8-4.908,6.522,6.522,0,0,1,1.872-4.9,6.914,6.914,0,0,1,5.04-1.824q3.36,0,4.908,1.848a6.827,6.827,0,0,1,1.548,4.536v.456q0,.216-.024.576Zm6.948-4.524a4.061,4.061,0,0,0-2.748-.9,4.248,4.248,0,0,0-2.8.864,3.976,3.976,0,0,0-1.308,2.568H68.5A3.526,3.526,0,0,0,67.332,10.536Z" transform="translate(-1.8 -3.251)" fill="#ed1c24"/><path d="M76.416,3.251v2.52H73.871V3.251Zm0,4.7V20.748H73.871V7.956Z" transform="translate(-1.8 -3.251)" fill="#f7941d"/><path d="M82.535,7.956V9.611q.36-.36.7-.648a7.963,7.963,0,0,1,.648-.5,4.832,4.832,0,0,1,1.44-.648,6.955,6.955,0,0,1,1.728-.192,5.847,5.847,0,0,1,2.736.612A3.284,3.284,0,0,1,91.391,9.9q.048.144.1.276t.1.252a5.166,5.166,0,0,1,.132.828q.036.445.036,1.332v8.16H89.207V13a3.985,3.985,0,0,0-.672-2.616,2.869,2.869,0,0,0-2.256-.768,4.166,4.166,0,0,0-2.172.564A2.979,2.979,0,0,0,82.8,11.651c-.032.081-.06.156-.084.228s-.044.141-.06.2a4.307,4.307,0,0,0-.1.708q-.024.4-.024,1.236v6.72H79.991V7.956Z" transform="translate(-1.8 -3.251)" fill="#00a651"/></svg>